# Blender v2.79 (sub 0) OBJ File: ''
# www.blender.org
o Sphere
v 0.000000 0.980785 -0.195090
v 0.000000 0.923880 -0.382683
v 0.000000 0.831470 -0.555570
v 0.000000 0.707107 -0.707107
v 0.000000 0.555570 -0.831470
v 0.000000 0.382683 -0.923880
v 0.000000 0.195090 -0.980785
v 0.000000 0.000000 -1.000000
v 0.000000 -0.195090 -0.980785
v 0.000000 -0.382683 -0.923880
v 0.000000 -0.707107 -0.707107
v 0.079351 0.980785 -0.178224
v 0.155652 0.923880 -0.349599
v 0.225971 0.831470 -0.507539
v 0.287606 0.707107 -0.645974
v 0.338189 0.555570 -0.759585
v 0.375776 0.382683 -0.844006
v 0.398921 0.195090 -0.895992
v 0.406737 0.000000 -0.913545
v 0.398921 -0.195090 -0.895992
v 0.375776 -0.382683 -0.844006
v 0.338189 -0.555570 -0.759585
v 0.287606 -0.707107 -0.645974
v 0.225971 -0.831470 -0.507539
v 0.155651 -0.923880 -0.349599
v 0.079350 -0.980785 -0.178224
v 0.144981 0.980785 -0.130541
v 0.284389 0.923880 -0.256065
v 0.412869 0.831470 -0.371749
v 0.525483 0.707107 -0.473147
v 0.617903 0.555570 -0.556362
v 0.686576 0.382683 -0.618196
v 0.728866 0.195090 -0.656273
v 0.743145 0.000000 -0.669131
v 0.728866 -0.195090 -0.656273
v 0.686576 -0.382683 -0.618196
v 0.617903 -0.555570 -0.556362
v 0.525483 -0.707107 -0.473147
v 0.412869 -0.831470 -0.371749
v 0.284389 -0.923880 -0.256065
v 0.144980 -0.980785 -0.130541
v 0.185542 0.980785 -0.060286
v 0.363954 0.923880 -0.118255
v 0.528379 0.831470 -0.171680
v 0.672499 0.707107 -0.218508
v 0.790775 0.555570 -0.256938
v 0.878662 0.382683 -0.285494
v 0.932782 0.195090 -0.303079
v 0.951057 0.000000 -0.309017
v 0.932783 -0.195090 -0.303079
v 0.878662 -0.382683 -0.285494
v 0.790775 -0.555570 -0.256938
v 0.672499 -0.707107 -0.218508
v 0.528379 -0.831470 -0.171680
v 0.363954 -0.923880 -0.118255
v 0.185542 -0.980785 -0.060286
v 0.000000 -1.000000 0.000000
v 0.194022 0.980785 0.020393
v 0.380587 0.923880 0.040002
v 0.552527 0.831470 0.058073
v 0.703233 0.707107 0.073913
v 0.826915 0.555570 0.086913
v 0.918819 0.382683 0.096572
v 0.975413 0.195090 0.102520
v 0.994522 0.000000 0.104529
v 0.975413 -0.195090 0.102520
v 0.918819 -0.382683 0.096572
v 0.826915 -0.555570 0.086913
v 0.703233 -0.707107 0.073913
v 0.552527 -0.831470 0.058073
v 0.380587 -0.923880 0.040002
v 0.194022 -0.980785 0.020393
v 0.168953 0.980785 0.097546
v 0.331414 0.923880 0.191342
v 0.481138 0.831470 0.277786
v 0.612373 0.707107 0.353554
v 0.720074 0.555570 0.415735
v 0.800103 0.382683 0.461940
v 0.849385 0.195090 0.490393
v 0.866026 0.000000 0.500000
v 0.849385 -0.195090 0.490393
v 0.800103 -0.382683 0.461940
v 0.720074 -0.555570 0.415735
v 0.612373 -0.707107 0.353554
v 0.481138 -0.831470 0.277786
v 0.331414 -0.923880 0.191342
v 0.168953 -0.980785 0.097546
v 0.114671 0.980785 0.157832
v 0.224936 0.923880 0.309598
v 0.326556 0.831470 0.449466
v 0.415627 0.707107 0.572062
v 0.488726 0.555570 0.672674
v 0.543043 0.382683 0.747435
v 0.576491 0.195090 0.793472
v 0.587785 0.000000 0.809017
v 0.576491 -0.195090 0.793472
v 0.543043 -0.382683 0.747435
v 0.488726 -0.555570 0.672674
v 0.415627 -0.707107 0.572062
v 0.326556 -0.831470 0.449466
v 0.224936 -0.923880 0.309598
v 0.114671 -0.980785 0.157832
v 0.040562 0.980785 0.190828
v 0.079564 0.923880 0.374321
v 0.115510 0.831470 0.543430
v 0.147016 0.707107 0.691655
v 0.172872 0.555570 0.813301
v 0.192085 0.382683 0.903691
v 0.203917 0.195090 0.959353
v 0.207912 0.000000 0.978148
v 0.203917 -0.195090 0.959353
v 0.192085 -0.382683 0.903691
v 0.172872 -0.555570 0.813301
v 0.147016 -0.707107 0.691655
v 0.115510 -0.831470 0.543430
v 0.079564 -0.923880 0.374321
v 0.040562 -0.980785 0.190828
v -0.040562 0.980785 0.190828
v -0.079564 0.923880 0.374321
v -0.115510 0.831470 0.543430
v -0.147016 0.707107 0.691655
v -0.172872 0.555570 0.813300
v -0.192085 0.382683 0.903691
v -0.203917 0.195090 0.959353
v -0.207912 0.000000 0.978148
v -0.203917 -0.195090 0.959353
v -0.192085 -0.382683 0.903691
v -0.172872 -0.555570 0.813300
v -0.147016 -0.707107 0.691655
v -0.115510 -0.831470 0.543430
v -0.079564 -0.923880 0.374321
v -0.040562 -0.980785 0.190828
v -0.000000 1.000000 0.000001
v -0.114671 0.980785 0.157832
v -0.224936 0.923880 0.309598
v -0.326556 0.831470 0.449466
v -0.415627 0.707107 0.572062
v -0.488726 0.555570 0.672673
v -0.543043 0.382683 0.747434
v -0.576491 0.195090 0.793472
v -0.587785 0.000000 0.809017
v -0.576491 -0.195090 0.793472
v -0.543043 -0.382683 0.747434
v -0.488726 -0.555570 0.672673
v -0.415627 -0.707107 0.572062
v -0.326556 -0.831470 0.449466
v -0.224936 -0.923880 0.309598
v -0.114671 -0.980785 0.157832
v -0.168953 0.980785 0.097546
v -0.331414 0.923880 0.191342
v -0.481138 0.831470 0.277785
v -0.612372 0.707107 0.353554
v -0.720074 0.555570 0.415735
v -0.800103 0.382683 0.461940
v -0.849385 0.195090 0.490393
v -0.866025 0.000000 0.500000
v -0.849385 -0.195090 0.490393
v -0.800103 -0.382683 0.461940
v -0.720074 -0.555570 0.415735
v -0.612372 -0.707107 0.353554
v -0.481138 -0.831470 0.277785
v -0.331414 -0.923880 0.191342
v -0.168953 -0.980785 0.097546
v -0.194022 0.980785 0.020393
v -0.380587 0.923880 0.040002
v -0.552527 0.831470 0.058073
v -0.703233 0.707107 0.073913
v -0.826915 0.555570 0.086912
v -0.918818 0.382683 0.096572
v -0.975412 0.195090 0.102520
v -0.994522 0.000000 0.104529
v -0.975412 -0.195090 0.102520
v -0.918818 -0.382683 0.096572
v -0.826915 -0.555570 0.086912
v -0.703233 -0.707107 0.073913
v -0.552527 -0.831470 0.058073
v -0.380587 -0.923880 0.040002
v -0.194022 -0.980785 0.020393
v -0.185542 0.980785 -0.060286
v -0.363954 0.923880 -0.118255
v -0.528379 0.831470 -0.171680
v -0.672498 0.707107 -0.218508
v -0.790775 0.555570 -0.256938
v -0.878661 0.382683 -0.285494
v -0.932782 0.195090 -0.303079
v -0.951056 0.000000 -0.309017
v -0.932782 -0.195090 -0.303079
v -0.878662 -0.382683 -0.285494
v -0.790775 -0.555570 -0.256938
v -0.672498 -0.707107 -0.218508
v -0.528379 -0.831470 -0.171680
v -0.363954 -0.923880 -0.118255
v -0.185542 -0.980785 -0.060286
v -0.144981 0.980785 -0.130541
v -0.284389 0.923880 -0.256065
v -0.412869 0.831470 -0.371749
v -0.525483 0.707107 -0.473146
v -0.617902 0.555570 -0.556362
v -0.686576 0.382683 -0.618196
v -0.728865 0.195090 -0.656273
v -0.743145 0.000000 -0.669130
v -0.728865 -0.195090 -0.656273
v -0.686576 -0.382683 -0.618196
v -0.617902 -0.555570 -0.556362
v -0.525483 -0.707107 -0.473146
v -0.412869 -0.831470 -0.371749
v -0.284389 -0.923880 -0.256065
v -0.144980 -0.980785 -0.130541
v -0.079350 0.980785 -0.178224
v -0.155651 0.923880 -0.349599
v -0.225971 0.831470 -0.507538
v -0.287606 0.707107 -0.645974
v -0.338189 0.555570 -0.759585
v -0.375776 0.382683 -0.844006
v -0.398921 0.195090 -0.895992
v -0.406736 0.000000 -0.913545
v -0.398921 -0.195090 -0.895992
v -0.375775 -0.382683 -0.844006
v -0.338189 -0.555570 -0.759585
v -0.287606 -0.707107 -0.645974
v -0.225971 -0.831470 -0.507538
v -0.155651 -0.923880 -0.349598
v -0.079350 -0.980785 -0.178224
v 0.000000 -0.555570 -0.831469
v 0.000000 -0.831470 -0.555570
v -0.000000 -0.923880 -0.382683
v 0.000000 -0.980785 -0.195090
vn 0.0000 -0.5496 -0.8354
vn 0.2902 -0.7006 -0.6518
vn 0.0000 -0.7006 -0.7135
vn 0.0000 0.7006 -0.7135
vn 0.3398 0.5496 -0.7631
vn 0.0000 0.5496 -0.8354
vn 0.2296 -0.8254 -0.5156
vn 0.0000 -0.8254 -0.5644
vn 0.3765 0.3782 -0.8457
vn 0.0000 0.3782 -0.9257
vn 0.1601 -0.9192 -0.3597
vn 0.0000 -0.9192 -0.3937
vn 0.3991 0.1926 -0.8964
vn 0.0000 0.1926 -0.9813
vn 0.0844 -0.9782 -0.1896
vn 0.0000 -0.9782 -0.2076
vn 0.4067 0.0000 -0.9135
vn 0.0000 0.0000 -1.0000
vn 0.0000 0.9782 -0.2076
vn 0.0000 1.0000 0.0000
vn 0.0844 0.9782 -0.1896
vn 0.0000 -1.0000 0.0000
vn 0.3991 -0.1926 -0.8964
vn 0.0000 -0.1926 -0.9813
vn 0.1601 0.9192 -0.3597
vn 0.0000 0.9192 -0.3937
vn 0.3765 -0.3782 -0.8457
vn 0.0000 -0.3782 -0.9257
vn 0.2296 0.8254 -0.5156
vn 0.0000 0.8254 -0.5644
vn 0.3398 -0.5496 -0.7631
vn 0.2902 0.7006 -0.6518
vn 0.6879 -0.3782 -0.6194
vn 0.6208 -0.5496 -0.5590
vn 0.5302 0.7006 -0.4774
vn 0.5302 -0.7006 -0.4774
vn 0.6208 0.5496 -0.5590
vn 0.4194 -0.8254 -0.3777
vn 0.6879 0.3782 -0.6194
vn 0.2926 -0.9192 -0.2634
vn 0.7292 0.1926 -0.6566
vn 0.1543 -0.9782 -0.1389
vn 0.7431 0.0000 -0.6691
vn 0.1543 0.9782 -0.1389
vn 0.7292 -0.1926 -0.6566
vn 0.2926 0.9192 -0.2634
vn 0.4194 0.8254 -0.3777
vn 0.3744 -0.9192 -0.1216
vn 0.1974 -0.9782 -0.0641
vn 0.9510 0.0000 -0.3090
vn 0.1974 0.9782 -0.0641
vn 0.9332 -0.1926 -0.3032
vn 0.3744 0.9192 -0.1216
vn 0.8804 -0.3782 -0.2860
vn 0.5368 0.8254 -0.1744
vn 0.7945 -0.5496 -0.2581
vn 0.6786 0.7006 -0.2205
vn 0.6786 -0.7006 -0.2205
vn 0.7945 0.5496 -0.2581
vn 0.5368 -0.8254 -0.1744
vn 0.8804 0.3782 -0.2860
vn 0.9332 0.1926 -0.3032
vn 0.7096 0.7006 0.0746
vn 0.7096 -0.7006 0.0746
vn 0.8308 0.5496 0.0873
vn 0.5614 -0.8254 0.0590
vn 0.9207 0.3782 0.0967
vn 0.3916 -0.9192 0.0411
vn 0.9759 0.1926 0.1025
vn 0.2064 -0.9782 0.0217
vn 0.9945 0.0000 0.1045
vn 0.2064 0.9782 0.0217
vn 0.9759 -0.1926 0.1025
vn 0.3916 0.9192 0.0411
vn 0.9207 -0.3782 0.0967
vn 0.5614 0.8254 0.0590
vn 0.8308 -0.5496 0.0873
vn 0.8660 0.0000 0.5000
vn 0.1798 0.9782 0.1038
vn 0.1798 -0.9782 0.1038
vn 0.8498 -0.1926 0.4906
vn 0.3410 0.9192 0.1968
vn 0.8017 -0.3782 0.4628
vn 0.4888 0.8254 0.2822
vn 0.7235 -0.5496 0.4177
vn 0.6179 0.7006 0.3567
vn 0.6179 -0.7006 0.3567
vn 0.7235 0.5496 0.4177
vn 0.4888 -0.8254 0.2822
vn 0.8017 0.3782 0.4628
vn 0.3410 -0.9192 0.1968
vn 0.8498 0.1926 0.4906
vn 0.4194 -0.7006 0.5772
vn 0.4910 0.5496 0.6758
vn 0.3318 -0.8254 0.4566
vn 0.5441 0.3782 0.7489
vn 0.2314 -0.9192 0.3185
vn 0.5768 0.1926 0.7938
vn 0.1220 -0.9782 0.1679
vn 0.5878 0.0000 0.8090
vn 0.1220 0.9782 0.1679
vn 0.5768 -0.1926 0.7938
vn 0.2314 0.9192 0.3185
vn 0.5441 -0.3782 0.7489
vn 0.3318 0.8254 0.4566
vn 0.4910 -0.5496 0.6758
vn 0.4194 0.7006 0.5772
vn 0.0432 -0.9782 0.2030
vn 0.2040 -0.1926 0.9598
vn 0.0819 0.9192 0.3851
vn 0.1924 -0.3782 0.9055
vn 0.1173 0.8254 0.5521
vn 0.1737 -0.5496 0.8171
vn 0.1483 0.7006 0.6979
vn 0.1483 -0.7006 0.6979
vn 0.1737 0.5496 0.8171
vn 0.1173 -0.8254 0.5521
vn 0.1924 0.3782 0.9055
vn 0.0819 -0.9192 0.3851
vn 0.2040 0.1926 0.9598
vn 0.2079 0.0000 0.9781
vn 0.0432 0.9782 0.2030
vn -0.1483 -0.7006 0.6979
vn -0.1173 -0.8254 0.5521
vn -0.1737 0.5496 0.8171
vn -0.1924 0.3782 0.9055
vn -0.0819 -0.9192 0.3851
vn -0.2040 0.1926 0.9598
vn -0.0432 -0.9782 0.2030
vn -0.2079 0.0000 0.9781
vn -0.0432 0.9782 0.2030
vn -0.2040 -0.1926 0.9598
vn -0.0819 0.9192 0.3851
vn -0.1924 -0.3782 0.9055
vn -0.1173 0.8254 0.5521
vn -0.1737 -0.5496 0.8171
vn -0.1483 0.7006 0.6979
vn -0.2314 0.9192 0.3185
vn -0.5441 -0.3782 0.7489
vn -0.3318 0.8254 0.4566
vn -0.4910 -0.5496 0.6758
vn -0.4194 0.7006 0.5772
vn -0.4194 -0.7006 0.5772
vn -0.4910 0.5496 0.6758
vn -0.3318 -0.8254 0.4566
vn -0.5441 0.3782 0.7489
vn -0.2314 -0.9192 0.3185
vn -0.5768 0.1926 0.7938
vn -0.1220 -0.9782 0.1679
vn -0.5878 0.0000 0.8090
vn -0.1220 0.9782 0.1679
vn -0.5768 -0.1926 0.7938
vn -0.8017 0.3782 0.4628
vn -0.3410 -0.9192 0.1968
vn -0.8498 0.1926 0.4906
vn -0.1798 -0.9782 0.1038
vn -0.8660 0.0000 0.5000
vn -0.1798 0.9782 0.1038
vn -0.8498 -0.1926 0.4906
vn -0.3410 0.9192 0.1968
vn -0.8017 -0.3782 0.4628
vn -0.4888 0.8254 0.2822
vn -0.7235 -0.5496 0.4177
vn -0.6179 0.7006 0.3567
vn -0.6179 -0.7006 0.3567
vn -0.7235 0.5496 0.4177
vn -0.4888 -0.8254 0.2822
vn -0.9759 -0.1926 0.1025
vn -0.9207 -0.3782 0.0967
vn -0.5614 0.8254 0.0590
vn -0.8308 -0.5496 0.0873
vn -0.7096 0.7006 0.0746
vn -0.7096 -0.7006 0.0746
vn -0.8308 0.5496 0.0873
vn -0.5614 -0.8254 0.0590
vn -0.9207 0.3782 0.0967
vn -0.3916 -0.9192 0.0411
vn -0.9759 0.1926 0.1025
vn -0.2064 -0.9782 0.0217
vn -0.9945 0.0000 0.1045
vn -0.2064 0.9782 0.0217
vn -0.3916 0.9192 0.0411
vn -0.3744 -0.9192 -0.1216
vn -0.9332 0.1926 -0.3032
vn -0.1974 -0.9782 -0.0641
vn -0.9510 0.0000 -0.3090
vn -0.1974 0.9782 -0.0641
vn -0.9332 -0.1926 -0.3032
vn -0.3744 0.9192 -0.1216
vn -0.8804 -0.3782 -0.2860
vn -0.5368 0.8254 -0.1744
vn -0.7945 -0.5496 -0.2581
vn -0.6786 0.7006 -0.2205
vn -0.6786 -0.7006 -0.2205
vn -0.7945 0.5496 -0.2581
vn -0.5368 -0.8254 -0.1744
vn -0.8804 0.3782 -0.2860
vn -0.2926 0.9192 -0.2634
vn -0.4194 0.8254 -0.3777
vn -0.6879 -0.3782 -0.6194
vn -0.6208 -0.5496 -0.5590
vn -0.5302 0.7006 -0.4774
vn -0.5302 -0.7006 -0.4774
vn -0.6208 0.5496 -0.5590
vn -0.4194 -0.8254 -0.3777
vn -0.6879 0.3782 -0.6194
vn -0.2926 -0.9192 -0.2634
vn -0.7292 0.1926 -0.6566
vn -0.1543 -0.9782 -0.1389
vn -0.7431 0.0000 -0.6691
vn -0.1543 0.9782 -0.1389
vn -0.7292 -0.1926 -0.6566
vn -0.3991 0.1926 -0.8964
vn -0.1601 -0.9192 -0.3597
vn -0.0844 -0.9782 -0.1896
vn -0.4067 0.0000 -0.9135
vn -0.0844 0.9782 -0.1896
vn -0.3991 -0.1926 -0.8964
vn -0.1601 0.9192 -0.3597
vn -0.3765 -0.3782 -0.8457
vn -0.2296 0.8254 -0.5156
vn -0.3398 -0.5496 -0.7631
vn -0.2902 0.7006 -0.6518
vn -0.2902 -0.7006 -0.6518
vn -0.3398 0.5496 -0.7631
vn -0.2296 -0.8254 -0.5156
vn -0.3765 0.3782 -0.8457
s 1
f 224//1 23//2 11//3
f 4//4 16//5 5//6
f 11//3 24//7 225//8
f 5//6 17//9 6//10
f 225//8 25//11 226//12
f 6//10 18//13 7//14
f 226//12 26//15 227//16
f 7//14 19//17 8//18
f 1//19 133//20 12//21
f 57//22 227//16 26//15
f 8//18 20//23 9//24
f 1//19 13//25 2//26
f 9//24 21//27 10//28
f 2//26 14//29 3//30
f 224//1 21//27 22//31
f 4//4 14//29 15//32
f 22//31 36//33 37//34
f 14//29 30//35 15//32
f 22//31 38//36 23//2
f 15//32 31//37 16//5
f 23//2 39//38 24//7
f 16//5 32//39 17//9
f 25//11 39//38 40//40
f 17//9 33//41 18//13
f 25//11 41//42 26//15
f 18//13 34//43 19//17
f 12//21 133//20 27//44
f 57//22 26//15 41//42
f 19//17 35//45 20//23
f 12//21 28//46 13//25
f 20//23 36//33 21//27
f 14//29 28//46 29//47
f 41//42 55//48 56//49
f 33//41 49//50 34//43
f 27//44 133//20 42//51
f 57//22 41//42 56//49
f 34//43 50//52 35//45
f 27//44 43//53 28//46
f 35//45 51//54 36//33
f 28//46 44//55 29//47
f 36//33 52//56 37//34
f 29//47 45//57 30//35
f 37//34 53//58 38//36
f 30//35 46//59 31//37
f 38//36 54//60 39//38
f 31//37 47//61 32//39
f 39//38 55//48 40//40
f 33//41 47//61 48//62
f 44//55 61//63 45//57
f 52//56 69//64 53//58
f 45//57 62//65 46//59
f 54//60 69//64 70//66
f 46//59 63//67 47//61
f 54//60 71//68 55//48
f 48//62 63//67 64//69
f 56//49 71//68 72//70
f 48//62 65//71 49//50
f 42//51 133//20 58//72
f 57//22 56//49 72//70
f 50//52 65//71 66//73
f 42//51 59//74 43//53
f 50//52 67//75 51//54
f 43//53 60//76 44//55
f 51//54 68//77 52//56
f 64//69 80//78 65//71
f 58//72 133//20 73//79
f 57//22 72//70 87//80
f 65//71 81//81 66//73
f 58//72 74//82 59//74
f 66//73 82//83 67//75
f 60//76 74//82 75//84
f 67//75 83//85 68//77
f 60//76 76//86 61//63
f 68//77 84//87 69//64
f 61//63 77//88 62//65
f 69//64 85//89 70//66
f 62//65 78//90 63//67
f 71//68 85//89 86//91
f 63//67 79//92 64//69
f 71//68 87//80 72//70
f 83//85 99//93 84//87
f 76//86 92//94 77//88
f 84//87 100//95 85//89
f 78//90 92//94 93//96
f 85//89 101//97 86//91
f 78//90 94//98 79//92
f 86//91 102//99 87//80
f 79//92 95//100 80//78
f 73//79 133//20 88//101
f 57//22 87//80 102//99
f 80//78 96//102 81//81
f 73//79 89//103 74//82
f 81//81 97//104 82//83
f 75//84 89//103 90//105
f 82//83 98//106 83//85
f 75//84 91//107 76//86
f 57//22 102//99 117//108
f 95//100 111//109 96//102
f 88//101 104//110 89//103
f 96//102 112//111 97//104
f 89//103 105//112 90//105
f 98//106 112//111 113//113
f 90//105 106//114 91//107
f 99//93 113//113 114//115
f 91//107 107//116 92//94
f 100//95 114//115 115//117
f 92//94 108//118 93//96
f 100//95 116//119 101//97
f 93//96 109//120 94//98
f 102//99 116//119 117//108
f 94//98 110//121 95//100
f 88//101 133//20 103//122
f 115//117 129//123 130//124
f 108//118 122//125 123//126
f 115//117 131//127 116//119
f 108//118 124//128 109//120
f 117//108 131//127 132//129
f 109//120 125//130 110//121
f 103//122 133//20 118//131
f 57//22 117//108 132//129
f 110//121 126//132 111//109
f 103//122 119//133 104//110
f 111//109 127//134 112//111
f 104//110 120//135 105//112
f 113//113 127//134 128//136
f 105//112 121//137 106//114
f 114//115 128//136 129//123
f 106//114 122//125 107//116
f 118//131 135//138 119//133
f 126//132 143//139 127//134
f 119//133 136//140 120//135
f 128//136 143//139 144//141
f 120//135 137//142 121//137
f 128//136 145//143 129//123
f 121//137 138//144 122//125
f 130//124 145//143 146//145
f 122//125 139//146 123//126
f 130//124 147//147 131//127
f 123//126 140//148 124//128
f 132//129 147//147 148//149
f 125//130 140//148 141//150
f 118//131 133//20 134//151
f 57//22 132//129 148//149
f 125//130 142//152 126//132
f 138//144 154//153 139//146
f 146//145 162//154 147//147
f 139//146 155//155 140//148
f 148//149 162//154 163//156
f 140//148 156//157 141//150
f 134//151 133//20 149//158
f 57//22 148//149 163//156
f 141//150 157//159 142//152
f 134//151 150//160 135//138
f 142//152 158//161 143//139
f 136//140 150//160 151//162
f 143//139 159//163 144//141
f 136//140 152//164 137//142
f 144//141 160//165 145//143
f 137//142 153//166 138//144
f 145//143 161//167 146//145
f 158//161 172//168 173//169
f 150//160 166//170 151//162
f 159//163 173//169 174//171
f 151//162 167//172 152//164
f 159//163 175//173 160//165
f 152//164 168//174 153//166
f 161//167 175//173 176//175
f 153//166 169//176 154//153
f 161//167 177//177 162//154
f 154//153 170//178 155//155
f 163//156 177//177 178//179
f 156//157 170//178 171//180
f 149//158 133//20 164//181
f 57//22 163//156 178//179
f 156//157 172//168 157//159
f 149//158 165//182 150//160
f 176//175 192//183 177//177
f 169//176 185//184 170//178
f 177//177 193//185 178//179
f 171//180 185//184 186//186
f 164//181 133//20 179//187
f 57//22 178//179 193//185
f 171//180 187//188 172//168
f 164//181 180//189 165//182
f 172//168 188//190 173//169
f 165//182 181//191 166//170
f 174//171 188//190 189//192
f 166//170 182//193 167//172
f 174//171 190//194 175//173
f 167//172 183//195 168//174
f 176//175 190//194 191//196
f 168//174 184//197 169//176
f 181//191 195//198 196//199
f 189//192 203//200 204//201
f 181//191 197//202 182//193
f 189//192 205//203 190//194
f 183//195 197//202 198//204
f 190//194 206//205 191//196
f 183//195 199//206 184//197
f 191//196 207//207 192//183
f 184//197 200//208 185//184
f 192//183 208//209 193//185
f 186//186 200//208 201//210
f 179//187 133//20 194//211
f 57//22 193//185 208//209
f 186//186 202//212 187//188
f 179//187 195//198 180//189
f 188//190 202//212 203//200
f 199//206 215//213 200//208
f 208//209 222//214 223//215
f 201//210 215//213 216//216
f 194//211 133//20 209//217
f 57//22 208//209 223//215
f 201//210 217//218 202//212
f 194//211 210//219 195//198
f 202//212 218//220 203//200
f 195//198 211//221 196//199
f 204//201 218//220 219//222
f 196//199 212//223 197//202
f 204//201 220//224 205//203
f 198//204 212//223 213//225
f 206//205 220//224 221//226
f 198//204 214//227 199//206
f 206//205 222//214 207//207
f 219//222 10//28 224//1
f 212//223 3//30 4//4
f 219//222 11//3 220//224
f 213//225 4//4 5//6
f 220//224 225//8 221//226
f 213//225 6//10 214//227
f 221//226 226//12 222//214
f 214//227 7//14 215//213
f 223//215 226//12 227//16
f 216//216 7//14 8//18
f 209//217 133//20 1//19
f 57//22 223//215 227//16
f 216//216 9//24 217//218
f 210//219 1//19 2//26
f 217//218 10//28 218//220
f 211//221 2//26 3//30
f 224//1 22//31 23//2
f 4//4 15//32 16//5
f 11//3 23//2 24//7
f 5//6 16//5 17//9
f 225//8 24//7 25//11
f 6//10 17//9 18//13
f 226//12 25//11 26//15
f 7//14 18//13 19//17
f 8//18 19//17 20//23
f 1//19 12//21 13//25
f 9//24 20//23 21//27
f 2//26 13//25 14//29
f 224//1 10//28 21//27
f 4//4 3//30 14//29
f 22//31 21//27 36//33
f 14//29 29//47 30//35
f 22//31 37//34 38//36
f 15//32 30//35 31//37
f 23//2 38//36 39//38
f 16//5 31//37 32//39
f 25//11 24//7 39//38
f 17//9 32//39 33//41
f 25//11 40//40 41//42
f 18//13 33//41 34//43
f 19//17 34//43 35//45
f 12//21 27//44 28//46
f 20//23 35//45 36//33
f 14//29 13//25 28//46
f 41//42 40//40 55//48
f 33//41 48//62 49//50
f 34//43 49//50 50//52
f 27//44 42//51 43//53
f 35//45 50//52 51//54
f 28//46 43//53 44//55
f 36//33 51//54 52//56
f 29//47 44//55 45//57
f 37//34 52//56 53//58
f 30//35 45//57 46//59
f 38//36 53//58 54//60
f 31//37 46//59 47//61
f 39//38 54//60 55//48
f 33//41 32//39 47//61
f 44//55 60//76 61//63
f 52//56 68//77 69//64
f 45//57 61//63 62//65
f 54//60 53//58 69//64
f 46//59 62//65 63//67
f 54//60 70//66 71//68
f 48//62 47//61 63//67
f 56//49 55//48 71//68
f 48//62 64//69 65//71
f 50//52 49//50 65//71
f 42//51 58//72 59//74
f 50//52 66//73 67//75
f 43//53 59//74 60//76
f 51//54 67//75 68//77
f 64//69 79//92 80//78
f 65//71 80//78 81//81
f 58//72 73//79 74//82
f 66//73 81//81 82//83
f 60//76 59//74 74//82
f 67//75 82//83 83//85
f 60//76 75//84 76//86
f 68//77 83//85 84//87
f 61//63 76//86 77//88
f 69//64 84//87 85//89
f 62//65 77//88 78//90
f 71//68 70//66 85//89
f 63//67 78//90 79//92
f 71//68 86//91 87//80
f 83//85 98//106 99//93
f 76//86 91//107 92//94
f 84//87 99//93 100//95
f 78//90 77//88 92//94
f 85//89 100//95 101//97
f 78//90 93//96 94//98
f 86//91 101//97 102//99
f 79//92 94//98 95//100
f 80//78 95//100 96//102
f 73//79 88//101 89//103
f 81//81 96//102 97//104
f 75//84 74//82 89//103
f 82//83 97//104 98//106
f 75//84 90//105 91//107
f 95//100 110//121 111//109
f 88//101 103//122 104//110
f 96//102 111//109 112//111
f 89//103 104//110 105//112
f 98//106 97//104 112//111
f 90//105 105//112 106//114
f 99//93 98//106 113//113
f 91//107 106//114 107//116
f 100//95 99//93 114//115
f 92//94 107//116 108//118
f 100//95 115//117 116//119
f 93//96 108//118 109//120
f 102//99 101//97 116//119
f 94//98 109//120 110//121
f 115//117 114//115 129//123
f 108//118 107//116 122//125
f 115//117 130//124 131//127
f 108//118 123//126 124//128
f 117//108 116//119 131//127
f 109//120 124//128 125//130
f 110//121 125//130 126//132
f 103//122 118//131 119//133
f 111//109 126//132 127//134
f 104//110 119//133 120//135
f 113//113 112//111 127//134
f 105//112 120//135 121//137
f 114//115 113//113 128//136
f 106//114 121//137 122//125
f 118//131 134//151 135//138
f 126//132 142//152 143//139
f 119//133 135//138 136//140
f 128//136 127//134 143//139
f 120//135 136//140 137//142
f 128//136 144//141 145//143
f 121//137 137//142 138//144
f 130//124 129//123 145//143
f 122//125 138//144 139//146
f 130//124 146//145 147//147
f 123//126 139//146 140//148
f 132//129 131//127 147//147
f 125//130 124//128 140//148
f 125//130 141//150 142//152
f 138//144 153//166 154//153
f 146//145 161//167 162//154
f 139//146 154//153 155//155
f 148//149 147//147 162//154
f 140//148 155//155 156//157
f 141//150 156//157 157//159
f 134//151 149//158 150//160
f 142//152 157//159 158//161
f 136//140 135//138 150//160
f 143//139 158//161 159//163
f 136//140 151//162 152//164
f 144//141 159//163 160//165
f 137//142 152//164 153//166
f 145//143 160//165 161//167
f 158//161 157//159 172//168
f 150//160 165//182 166//170
f 159//163 158//161 173//169
f 151//162 166//170 167//172
f 159//163 174//171 175//173
f 152//164 167//172 168//174
f 161//167 160//165 175//173
f 153//166 168//174 169//176
f 161//167 176//175 177//177
f 154//153 169//176 170//178
f 163//156 162//154 177//177
f 156//157 155//155 170//178
f 156//157 171//180 172//168
f 149//158 164//181 165//182
f 176//175 191//196 192//183
f 169//176 184//197 185//184
f 177//177 192//183 193//185
f 171//180 170//178 185//184
f 171//180 186//186 187//188
f 164//181 179//187 180//189
f 172//168 187//188 188//190
f 165//182 180//189 181//191
f 174//171 173//169 188//190
f 166//170 181//191 182//193
f 174//171 189//192 190//194
f 167//172 182//193 183//195
f 176//175 175//173 190//194
f 168//174 183//195 184//197
f 181//191 180//189 195//198
f 189//192 188//190 203//200
f 181//191 196//199 197//202
f 189//192 204//201 205//203
f 183//195 182//193 197//202
f 190//194 205//203 206//205
f 183//195 198//204 199//206
f 191//196 206//205 207//207
f 184//197 199//206 200//208
f 192//183 207//207 208//209
f 186//186 185//184 200//208
f 186//186 201//210 202//212
f 179//187 194//211 195//198
f 188//190 187//188 202//212
f 199//206 214//227 215//213
f 208//209 207//207 222//214
f 201//210 200//208 215//213
f 201//210 216//216 217//218
f 194//211 209//217 210//219
f 202//212 217//218 218//220
f 195//198 210//219 211//221
f 204//201 203//200 218//220
f 196//199 211//221 212//223
f 204//201 219//222 220//224
f 198//204 197//202 212//223
f 206//205 205//203 220//224
f 198//204 213//225 214//227
f 206//205 221//226 222//214
f 219//222 218//220 10//28
f 212//223 211//221 3//30
f 219//222 224//1 11//3
f 213//225 212//223 4//4
f 220//224 11//3 225//8
f 213//225 5//6 6//10
f 221//226 225//8 226//12
f 214//227 6//10 7//14
f 223//215 222//214 226//12
f 216//216 215//213 7//14
f 216//216 8//18 9//24
f 210//219 209//217 1//19
f 217//218 9//24 10//28
f 211//221 210//219 2//26
